<?xml version="1.0" encoding="utf-8"?>
<!-- Generator: Adobe Illustrator 27.0.1, SVG Export Plug-In . SVG Version: 6.00 Build 0)  -->
<svg version="1.1" id="Layer_1" xmlns="http://www.w3.org/2000/svg" xmlns:xlink="http://www.w3.org/1999/xlink" x="0px" y="0px"
	 viewBox="0 0 454.4 165.6" style="enable-background:new 0 0 454.4 165.6;" xml:space="preserve">
<style type="text/css">
	.st0{opacity:0.2;}
	.st1{fill:#CD1642;stroke:#000000;stroke-width:5;stroke-miterlimit:10;}
</style>
<path class="st0" d="M428.6,5.4c-54.1,15.4-135.3,34.4-197.7,85.9C166.4,34.8,62.8,10.3,38.3,5.4C16.6,0.9-18.7-4.3,12,6.8
	c74.7,23.8,193.7,124,214.3,155.6c2.7,4.1,5.3,4.1,8.6,0.1c24.7-31.1,90.3-89.3,211.1-156.1C458.8-0.2,459.8-3.5,428.6,5.4z"/>
<path class="st1" d="M428.6,5.4c-54.1,15.4-135.3,34.4-197.7,85.9C166.4,34.8,62.8,10.3,38.3,5.4C16.6,0.9-18.7-4.3,12,6.8
	c74.7,23.8,193.7,124,214.3,155.6c2.7,4.1,5.3,4.1,8.6,0.1c24.7-31.1,90.3-89.3,211.1-156.1C458.8-0.2,459.8-3.5,428.6,5.4z"/>
</svg>
