<svg id="Layer_1" data-name="Layer 1" xmlns="http://www.w3.org/2000/svg" viewBox="0 0 1920 879.97"><defs><style>.cls-1,.cls-2{fill:#010101;}.cls-2{stroke:#010101;stroke-width:0.4px;}.cls-3{fill:#ce1f44;}.cls-4{fill:#231f20;}</style></defs><polygon class="cls-1" points="199.47 231.75 74.13 231.75 74.13 103.75 0 103.75 0 425.73 74.13 425.73 74.13 297.75 199.47 297.75 199.47 425.73 273.6 425.73 273.6 171.73 199.47 171.73 199.47 231.75"/><path class="cls-2" d="M670.52,214.46c-4.48-30.6-34.74-53.84-69.46-53.84-62.81,0-86.38,51.7-86.38,105.54,0,51.27,23.6,103,86.38,103,42.74,0,66.79-28.41,72.13-68.93h67.68C733.74,376.87,679,426,601.06,426c-98.41,0-156.28-71.09-156.28-159.81,0-91.33,57.87-162.39,156.28-162.39,69.9,0,128.61,39.63,137.14,110.67Z"/><path class="cls-1" d="M987.18,307c0,66.23-38.48,122.18-109.17,122.18S768.84,373.22,768.84,307,807.32,184.83,878,184.83,987.18,240.78,987.18,307ZM797,307c0,49.21,26.92,98.46,81,98.46S959,356.2,959,307s-26.92-98.44-81-98.44S797,257.77,797,307Z"/><path class="cls-1" d="M1011,191.53h28.19v39.84h.9c10.3-27.75,41.18-46.54,73.85-46.54,64.89,0,84.58,34,84.58,89V422.46h-28.23V278.36c0-39.85-13-69.82-58.63-69.82-44.76,0-71.62,34-72.51,79.26V422.5H1011Z"/><path class="cls-1" d="M1720.61,191.53h26v54.16h.89c14.33-37.14,45.66-59.08,87.28-57.3v28.19c-51-2.69-86,34.91-86,82.81V422.44h-28.17Z"/><polygon class="cls-1" points="594.25 103.75 505.41 103.75 524.05 132.31 594.25 103.75"/><polyline class="cls-3" points="199.46 103.75 199.46 171.7 326.23 171.7 326.23 425.73 404.04 425.73 404.04 171.94 531.47 171.94 531.47 103.75"/><path class="cls-3" d="M1881.42,8.1c-80.92,23-202.28,51.44-295.6,128.41-96.43-84.43-251.4-121-288-128.5-32.51-6.64-85.24-14.44-39.43,2.15C1370.05,45.78,1548,195.68,1578.8,242.93c4,6.21,8,6.21,12.81.2,37-46.48,135-133.53,315.73-233.4C1926.66-.29,1928.08-5.2,1881.42,8.1Z"/><path class="cls-1" d="M1652.41,211.71l-19.11,18.6c18.6,18.95,28,47.78,28,76.68,0,49.21-26.84,98.46-81,98.46s-81-49.25-81-98.46c0-32.52,11.8-64.91,35.34-83.24l-19.44-18c-28.82,22.16-44,59.67-44,101.27,0,66.24,38.51,122.18,109.17,122.18S1689.44,373.24,1689.44,307C1689.44,268.91,1676.66,234.31,1652.41,211.71Z"/><path class="cls-1" d="M1408.77,119.06V235.38h-.9c-12.09-33.12-45.66-50.56-80.12-50.56-70.28,0-103.81,56.83-103.81,122.15s33.57,122.24,103.81,122.24c33.56,0,70.29-20.57,82.35-50.56h.89v43.86h26V140Zm-81,286.39c-53.7,0-75.63-50.58-75.63-98.46s21.93-98.44,75.63-98.44c60,0,81,50.57,81,98.44S1387.74,405.45,1327.77,405.45Z"/><path class="cls-4" d="M474.27,555.26,546.53,834h.89L625,555.26h37.91L741,834h.89l72.7-278.77h30.33L757.06,873.72H724.94l-80.73-285h-.89L563,873.72H530L441.71,555.26Z"/><path class="cls-4" d="M869.24,797.68a86.37,86.37,0,0,0,13.6,29.21,77.57,77.57,0,0,0,23.64,21.41q14.26,8.48,34.34,8.47,30.78,0,48.18-16t24.08-42.82h28.1q-8.92,39.26-32.78,60.66T940.82,880q-27.21,0-47.05-9.59a86.51,86.51,0,0,1-32.34-26.32,114.46,114.46,0,0,1-18.51-38.8,176.57,176.57,0,0,1-6-46.61,167.29,167.29,0,0,1,6-44.6,119.85,119.85,0,0,1,18.51-39,92.85,92.85,0,0,1,32.34-27.66q19.85-10.47,47.05-10.48,27.66,0,47.28,11.15A94.3,94.3,0,0,1,1020,677.25a121,121,0,0,1,17.62,41.48,181.7,181.7,0,0,1,4.46,47.5H865A124.55,124.55,0,0,0,869.24,797.68Zm139.16-85.87a84.14,84.14,0,0,0-14.5-26.09,71.89,71.89,0,0,0-22.75-18.29q-13.38-6.9-30.33-6.91-17.39,0-30.77,6.91a72,72,0,0,0-22.75,18.29A91.06,91.06,0,0,0,872.36,712,128.44,128.44,0,0,0,865,742.59h149A102,102,0,0,0,1008.4,711.81Z"/><path class="cls-4" d="M1084.22,797.68a86.2,86.2,0,0,0,13.61,29.21,77.57,77.57,0,0,0,23.64,21.41q14.27,8.48,34.34,8.47,30.78,0,48.17-16t24.09-42.82h28.1q-8.94,39.26-32.79,60.66T1155.81,880q-27.21,0-47.06-9.59a86.56,86.56,0,0,1-32.33-26.32,114.27,114.27,0,0,1-18.51-38.8,176.16,176.16,0,0,1-6-46.61,166.89,166.89,0,0,1,6-44.6,119.64,119.64,0,0,1,18.51-39,92.91,92.91,0,0,1,32.33-27.66q19.85-10.47,47.06-10.48,27.64,0,47.28,11.15A94.3,94.3,0,0,1,1235,677.25a121,121,0,0,1,17.62,41.48,182.13,182.13,0,0,1,4.46,47.5H1080A124.55,124.55,0,0,0,1084.22,797.68Zm139.16-85.87a84.32,84.32,0,0,0-14.49-26.09,72.11,72.11,0,0,0-22.75-18.29q-13.38-6.9-30.33-6.91-17.4,0-30.78,6.91a72,72,0,0,0-22.74,18.29,91.08,91.08,0,0,0-15,26.32,128.92,128.92,0,0,0-7.36,30.55h149A101.68,101.68,0,0,0,1223.38,711.81Z"/><path class="cls-4" d="M1306.57,555.26V755.08l127.56-111.51h37.47l-98.13,85.19,104.82,145h-35.24l-91-125.33-45.49,37.91v87.42h-28.1V555.26Z"/></svg>