<?xml version="1.0" encoding="utf-8"?>
<!-- Generator: Adobe Illustrator 25.3.1, SVG Export Plug-In . SVG Version: 6.00 Build 0)  -->
<svg version="1.1" id="Layer_1" xmlns="http://www.w3.org/2000/svg" xmlns:xlink="http://www.w3.org/1999/xlink" x="0px" y="0px"
	 viewBox="0 0 74.7 44.8" style="enable-background:new 0 0 74.7 44.8;" xml:space="preserve">
<style type="text/css">
	.st0{stroke:#000000;stroke-width:0.4;}
	.st1{fill:#D31245;}
</style>
<polygon points="20.1,25.1 7.4,25.1 7.4,12.2 0,12.2 0,44.6 7.4,44.6 7.4,31.8 20.1,31.8 20.1,44.6 27.5,44.6 27.5,19.1 20.1,19.1 
	"/>
<rect x="20.1" y="12.2" width="7.4" height="12.9"/>
<path class="st0" d="M67.4,23.5c-0.5-3.1-3.5-5.4-7-5.4c-6.3,0-8.7,5.2-8.7,10.5c0,5.1,2.4,10.3,8.7,10.3c4.3,0,6.7-2.8,7.2-6.9h6.8
	c-0.7,7.7-6.2,12.6-14,12.6c-9.9,0-15.7-7.1-15.7-16c0-9.1,5.8-16.2,15.7-16.2c7,0,12.9,4,13.8,11.1L67.4,23.5z"/>
<path class="st1" d="M68.4,4.4c-8.6,1.9-21.6,4.2-31.5,10.5C26.6,8,10.1,5,6.1,4.4C2.7,3.8-3,3.2,1.9,4.5
	c11.9,2.9,30.9,15.1,34.1,19c0.4,0.5,0.9,0.5,1.4,0c4-3.8,14.4-10.9,33.7-19C73.2,3.7,73.3,3.3,68.4,4.4z"/>
<rect x="32.8" y="15.1" class="st1" width="7.8" height="29.5"/>
</svg>
