<?xml version="1.0" encoding="utf-8"?>
<!-- Generator: Adobe Illustrator 15.1.0, SVG Export Plug-In . SVG Version: 6.00 Build 0)  -->
<!DOCTYPE svg PUBLIC "-//W3C//DTD SVG 1.1//EN" "http://www.w3.org/Graphics/SVG/1.1/DTD/svg11.dtd">
<svg version="1.1" id="Layer_1" xmlns="http://www.w3.org/2000/svg" xmlns:xlink="http://www.w3.org/1999/xlink" x="0px" y="0px"
	 width="612px" height="792px" viewBox="0 0 612 792" enable-background="new 0 0 612 792" xml:space="preserve">
<path fill="#FFFFFF" d="M284.091,387.232c0,6.66-3.87,12.285-10.979,12.285c-7.11,0-10.979-5.625-10.979-12.285
	s3.869-12.283,10.979-12.283C280.221,374.949,284.091,380.572,284.091,387.232z M264.966,387.232c0,4.949,2.701,9.9,8.146,9.9
	s8.145-4.951,8.145-9.9s-2.7-9.898-8.145-9.898S264.966,382.283,264.966,387.232z"/>
<path fill="#FFFFFF" d="M286.477,375.623h2.835v4.006h0.09c1.035-2.791,4.14-4.68,7.425-4.68c6.525,0,8.505,3.418,8.505,8.953
	v14.939h-2.835v-14.488c0-4.006-1.305-7.02-5.895-7.02c-4.5,0-7.2,3.42-7.29,7.963v13.545h-2.835V375.623z"/>
<path fill="#FFFFFF" d="M357.835,375.623h2.609v5.445h0.09c1.44-3.734,4.59-5.939,8.775-5.76v2.834
	c-5.131-0.27-8.641,3.51-8.641,8.326v12.373h-2.834V375.623z"/>
<g>
	<path fill="#D31245" d="M374.004,357.18c-8.137,2.316-20.34,5.174-29.723,12.912c-9.695-8.49-25.277-12.17-28.957-12.92
		c-3.27-0.668-8.57-1.451-3.965,0.215c11.227,3.584,29.123,18.654,32.217,23.406c0.406,0.623,0.805,0.623,1.287,0.02
		c3.727-4.674,13.576-13.428,31.746-23.469C378.553,356.338,378.695,355.844,374.004,357.18z"/>
</g>
<g>
	<path fill="#FFFFFF" d="M184.586,405.384h1.254v3.146h2.311v-3.146h1.254v7.854h-1.254v-3.652h-2.311v3.652h-1.254V405.384z"/>
	<path fill="#FFFFFF" d="M193.154,405.295h1.189v1.189h-1.189V405.295z M193.154,407.32h1.189v5.918h-1.189V407.32z"/>
	<path fill="#FFFFFF" d="M199.205,413.744c0,0.363,0.33,0.705,0.857,0.705c0.617,0,1.002-0.43,1.002-1.111v-0.957h-0.021
		c-0.221,0.518-0.771,0.814-1.343,0.814c-1.386,0-1.771-1.365-1.771-2.982c0-1.298,0.198-3.047,1.882-3.047
		c0.693,0,1.188,0.451,1.298,0.88h0.022v-0.726h1.121v5.633c0,1.441-0.615,2.311-2.211,2.311c-1.76,0-1.958-1.035-1.958-1.52
		H199.205z M200.041,412.248c0.924,0,1.023-1.166,1.023-2.101c0-0.968-0.121-2.036-0.946-2.036c-0.858,0-1.001,0.881-1.001,1.98
		C199.117,411.104,199.161,412.248,200.041,412.248z"/>
	<path fill="#FFFFFF" d="M205.783,405.384h1.188v2.574l0.033,0.022c0.33-0.506,0.847-0.814,1.452-0.814
		c0.901,0,1.474,0.406,1.474,1.605v4.467h-1.188v-4.059c0-0.771-0.231-1.068-0.825-1.068c-0.484,0-0.946,0.386-0.946,1.156v3.971
		h-1.188V405.384z"/>
	<path fill="#FFFFFF" d="M219.621,406.439h-1.87v-1.056h4.962v1.056h-1.838v6.799h-1.254V406.439z"/>
	<path fill="#FFFFFF" d="M225.825,405.384h1.188v2.574l0.033,0.022c0.33-0.506,0.847-0.814,1.451-0.814
		c0.902,0,1.475,0.406,1.475,1.605v4.467h-1.188v-4.059c0-0.771-0.232-1.068-0.826-1.068c-0.484,0-0.945,0.386-0.945,1.156v3.971
		h-1.188V405.384z"/>
	<path fill="#FFFFFF" d="M233.592,407.32h1.188v0.924h0.021c0.265-0.66,0.705-1.078,1.375-1.078c0.133,0,0.21,0.021,0.287,0.044
		v1.21c-0.088-0.021-0.297-0.066-0.496-0.066c-0.539,0-1.188,0.242-1.188,1.343v3.542h-1.188V407.32z"/>
	<path fill="#FFFFFF" d="M241.5,407.166c1.727,0,2.211,1.275,2.211,3.113s-0.561,3.113-2.211,3.113
		c-1.639,0-2.201-1.275-2.201-3.113S239.783,407.166,241.5,407.166z M241.5,412.513c0.869,0,1.023-0.726,1.023-2.233
		c0-1.309-0.154-2.233-1.023-2.233c-0.858,0-1.012,0.925-1.012,2.233C240.488,411.787,240.642,412.513,241.5,412.513z"/>
	<path fill="#FFFFFF" d="M250.124,412.546h-0.033c-0.297,0.528-0.858,0.847-1.519,0.847c-0.88,0-1.474-0.406-1.474-1.936v-4.137
		h1.188v4.246c0,0.66,0.297,0.881,0.803,0.881s0.969-0.33,0.969-0.99v-4.137h1.188v5.918h-1.122V412.546z"/>
	<path fill="#FFFFFF" d="M256.053,413.744c0,0.363,0.33,0.705,0.857,0.705c0.617,0,1.002-0.43,1.002-1.111v-0.957h-0.021
		c-0.221,0.518-0.771,0.814-1.343,0.814c-1.386,0-1.771-1.365-1.771-2.982c0-1.298,0.198-3.047,1.882-3.047
		c0.693,0,1.188,0.451,1.298,0.88h0.022v-0.726h1.121v5.633c0,1.441-0.615,2.311-2.211,2.311c-1.76,0-1.958-1.035-1.958-1.52
		H256.053z M256.889,412.248c0.924,0,1.023-1.166,1.023-2.101c0-0.968-0.121-2.036-0.946-2.036c-0.858,0-1.001,0.881-1.001,1.98
		C255.965,411.104,256.009,412.248,256.889,412.248z"/>
	<path fill="#FFFFFF" d="M262.631,405.384h1.188v2.574l0.033,0.022c0.33-0.506,0.848-0.814,1.453-0.814
		c0.901,0,1.474,0.406,1.474,1.605v4.467h-1.188v-4.059c0-0.771-0.23-1.068-0.824-1.068c-0.484,0-0.947,0.386-0.947,1.156v3.971
		h-1.188V405.384z"/>
	<path fill="#FFFFFF" d="M270.396,407.32h1.123v0.726h0.021c0.242-0.528,0.682-0.88,1.331-0.88c1.354,0,1.903,1.155,1.903,3.19
		c0,2.486-1.012,3.036-1.826,3.036c-0.639,0-1.122-0.318-1.342-0.847h-0.022v2.629h-1.188V407.32z M272.531,412.447
		c0.682,0,0.99-0.507,0.99-2.146c0-1.342-0.176-2.189-1.002-2.189c-0.813,0-1,0.837-1,2.102
		C271.52,411.633,271.695,412.447,272.531,412.447z"/>
	<path fill="#FFFFFF" d="M281.188,412.546h-0.033c-0.297,0.528-0.857,0.847-1.518,0.847c-0.881,0-1.475-0.406-1.475-1.936v-4.137
		h1.188v4.246c0,0.66,0.297,0.881,0.804,0.881c0.506,0,0.968-0.33,0.968-0.99v-4.137h1.188v5.918h-1.123V412.546z"/>
	<path fill="#FFFFFF" d="M285.4,407.32h0.814v-1.684h1.188v1.684h0.969v0.88h-0.969v3.531c0,0.462,0.133,0.627,0.539,0.627
		c0.176,0,0.319-0.011,0.43-0.032v0.879c-0.254,0.066-0.584,0.1-0.957,0.1c-0.803,0-1.199-0.22-1.199-1.43V408.2H285.4V407.32z"/>
	<path fill="#FFFFFF" d="M301.483,410.422v0.166c0,1.419-0.572,2.805-2.42,2.805c-1.98,0-2.597-1.275-2.597-4.082
		c0-2.805,0.616-4.081,2.607-4.081c2.233,0,2.365,1.65,2.365,2.464v0.144h-1.254v-0.132c0-0.727-0.22-1.562-1.122-1.529
		c-0.924,0-1.343,0.572-1.343,3.103s0.419,3.169,1.343,3.169c1.045,0,1.166-1.167,1.166-1.893v-0.133H301.483z"/>
	<path fill="#FFFFFF" d="M306.729,407.166c1.728,0,2.212,1.275,2.212,3.113s-0.562,3.113-2.212,3.113c-1.639,0-2.2-1.275-2.2-3.113
		S305.014,407.166,306.729,407.166z M306.729,412.513c0.869,0,1.023-0.726,1.023-2.233c0-1.309-0.154-2.233-1.023-2.233
		c-0.857,0-1.012,0.925-1.012,2.233C305.718,411.787,305.872,412.513,306.729,412.513z"/>
	<path fill="#FFFFFF" d="M312.384,407.32h1.122v0.693h0.033c0.297-0.529,0.858-0.848,1.419-0.848c0.848,0,1.199,0.406,1.375,0.902
		c0.342-0.572,0.781-0.902,1.497-0.902c0.836,0,1.44,0.429,1.44,1.573v4.499h-1.188v-4.059c0-0.771-0.231-1.068-0.716-1.068
		c-0.483,0-0.945,0.386-0.945,1.156v3.971h-1.188v-4.059c0-0.771-0.231-1.068-0.727-1.068c-0.473,0-0.935,0.386-0.935,1.156v3.971
		h-1.188V407.32z"/>
	<path fill="#FFFFFF" d="M322.943,407.32h1.122v0.726h0.021c0.242-0.528,0.683-0.88,1.332-0.88c1.353,0,1.903,1.155,1.903,3.19
		c0,2.486-1.013,3.036-1.827,3.036c-0.638,0-1.122-0.318-1.342-0.847h-0.021v2.629h-1.188V407.32z M325.077,412.447
		c0.683,0,0.99-0.507,0.99-2.146c0-1.342-0.176-2.189-1.001-2.189c-0.814,0-1.001,0.837-1.001,2.102
		C324.065,411.633,324.241,412.447,325.077,412.447z"/>
	<path fill="#FFFFFF" d="M333.734,412.546h-0.033c-0.297,0.528-0.858,0.847-1.519,0.847c-0.88,0-1.474-0.406-1.474-1.936v-4.137
		h1.188v4.246c0,0.66,0.297,0.881,0.803,0.881s0.968-0.33,0.968-0.99v-4.137h1.188v5.918h-1.122V412.546z"/>
	<path fill="#FFFFFF" d="M337.947,407.32h0.814v-1.684h1.188v1.684h0.969v0.88h-0.969v3.531c0,0.462,0.133,0.627,0.539,0.627
		c0.177,0,0.319-0.011,0.43-0.032v0.879c-0.253,0.066-0.583,0.1-0.957,0.1c-0.804,0-1.199-0.22-1.199-1.43V408.2h-0.814V407.32z"/>
	<path fill="#FFFFFF" d="M344.063,405.295h1.188v1.189h-1.188V405.295z M344.063,407.32h1.188v5.918h-1.188V407.32z"/>
	<path fill="#FFFFFF" d="M348.926,407.32h1.122v0.693h0.033c0.297-0.529,0.857-0.848,1.518-0.848c0.902,0,1.475,0.406,1.475,1.605
		v4.467h-1.188v-4.059c0-0.771-0.23-1.068-0.825-1.068c-0.483,0-0.945,0.386-0.945,1.156v3.971h-1.188V407.32z"/>
	<path fill="#FFFFFF" d="M357.88,413.744c0,0.363,0.329,0.705,0.857,0.705c0.616,0,1.001-0.43,1.001-1.111v-0.957h-0.021
		c-0.22,0.518-0.771,0.814-1.343,0.814c-1.386,0-1.771-1.365-1.771-2.982c0-1.298,0.197-3.047,1.881-3.047
		c0.693,0,1.188,0.451,1.298,0.88h0.022v-0.726h1.122v5.633c0,1.441-0.616,2.311-2.211,2.311c-1.761,0-1.959-1.035-1.959-1.52
		H357.88z M358.716,412.248c0.924,0,1.022-1.166,1.022-2.101c0-0.968-0.121-2.036-0.945-2.036c-0.858,0-1.002,0.881-1.002,1.98
		C357.791,411.104,357.835,412.248,358.716,412.248z"/>
</g>
<path fill="#FFFFFF" d="M350.978,377.653l-1.922,1.87c1.871,1.904,2.81,4.803,2.81,7.709c0,4.949-2.699,9.9-8.145,9.9
	s-8.145-4.951-8.145-9.9c0-3.268,1.186-6.527,3.553-8.369l-1.963-1.812c-2.897,2.229-4.426,6-4.426,10.182
	c0,6.66,3.871,12.285,10.98,12.285s10.98-5.625,10.98-12.285C354.701,383.404,353.415,379.926,350.978,377.653z"/>
<path fill="#FFFFFF" d="M326.479,368.338v11.695h-0.09c-1.215-3.33-4.59-5.084-8.055-5.084c-7.063,0-10.438,5.713-10.438,12.283
	s3.375,12.285,10.438,12.285c3.375,0,7.065-2.07,8.28-5.086h0.09v4.41h2.61v-28.398L326.479,368.338z M318.335,397.133
	c-5.399,0-7.604-5.086-7.604-9.9s2.205-9.898,7.604-9.898c6.03,0,8.145,5.084,8.145,9.898S324.365,397.133,318.335,397.133z"/>
<g>
	<polygon fill="#FFFFFF" points="204.62,379.417 192.019,379.417 192.019,366.548 184.564,366.548 184.564,398.923 192.019,398.923 
		192.019,386.054 204.62,386.054 204.62,398.923 212.074,398.923 212.074,373.384 204.62,373.384 	"/>
	<path fill="#FFFFFF" stroke="#FFFFFF" stroke-width="0.4" d="M251.976,377.81c-0.448-3.057-3.492-5.381-6.984-5.381
		c-6.312,0-8.686,5.166-8.686,10.547c0,5.123,2.373,10.287,8.686,10.287c4.297,0,6.715-2.84,7.252-6.887h6.805
		c-0.716,7.662-6.223,12.57-14.057,12.57c-9.895,0-15.714-7.105-15.714-15.971c0-9.127,5.819-16.23,15.714-16.23
		c7.028,0,12.938,3.961,13.789,11.064H251.976z"/>
	<polygon fill="#FFFFFF" points="244.307,366.548 235.374,366.548 237.249,369.421 	"/>
	<polyline fill="#D31245" points="204.619,366.548 204.619,373.382 217.36,373.382 217.36,398.923 225.184,398.923 225.184,373.405 
		237.994,373.405 237.994,366.548 	"/>
</g>
</svg>
