<?xml version="1.0" encoding="utf-8"?>
<!-- Generator: Adobe Illustrator 15.1.0, SVG Export Plug-In . SVG Version: 6.00 Build 0)  -->
<!DOCTYPE svg PUBLIC "-//W3C//DTD SVG 1.1//EN" "http://www.w3.org/Graphics/SVG/1.1/DTD/svg11.dtd">
<svg version="1.1" id="Layer_1" xmlns="http://www.w3.org/2000/svg" xmlns:xlink="http://www.w3.org/1999/xlink" x="0px" y="0px"
	 width="612px" height="792px" viewBox="0 0 612 792" enable-background="new 0 0 612 792" xml:space="preserve">
<polygon points="203.888,342.65 191.286,342.65 191.286,329.781 183.832,329.781 183.832,362.156 191.286,362.156 191.286,349.287 
	203.888,349.287 203.888,362.156 211.342,362.156 211.342,336.617 203.888,336.617 "/>
<path stroke="#000000" stroke-width="0.4" d="M251.251,341.043c-0.448-3.057-3.492-5.381-6.984-5.381
	c-6.312,0-8.686,5.166-8.686,10.547c0,5.123,2.373,10.287,8.686,10.287c4.297,0,6.715-2.84,7.252-6.887h6.805
	c-0.716,7.662-6.223,12.57-14.057,12.57c-9.895,0-15.714-7.105-15.714-15.971c0-9.127,5.819-16.23,15.714-16.23
	c7.028,0,12.938,3.961,13.789,11.064H251.251z"/>
<path d="M283.091,350.217c0,6.66-3.87,12.285-10.979,12.285c-7.11,0-10.979-5.625-10.979-12.285s3.869-12.283,10.979-12.283
	C279.221,337.934,283.091,343.557,283.091,350.217z M263.966,350.217c0,4.949,2.701,9.9,8.146,9.9s8.145-4.951,8.145-9.9
	s-2.7-9.898-8.145-9.898S263.966,345.268,263.966,350.217z"/>
<path d="M285.477,338.607h2.835v4.006h0.09c1.035-2.791,4.14-4.68,7.425-4.68c6.525,0,8.505,3.418,8.505,8.953v14.939h-2.835
	v-14.488c0-4.006-1.305-7.02-5.895-7.02c-4.5,0-7.2,3.42-7.29,7.963v13.545h-2.835V338.607z"/>
<path d="M356.835,338.607h2.609v5.445h0.09c1.44-3.734,4.59-5.939,8.775-5.76v2.834c-5.131-0.27-8.641,3.51-8.641,8.326v12.373
	h-2.834V338.607z"/>
<polygon points="243.582,329.781 234.649,329.781 236.524,332.654 "/>
<polyline fill="#939598" points="203.887,329.781 203.887,336.615 216.634,336.615 216.634,362.156 224.457,362.156 
	224.457,336.639 237.27,336.639 237.27,329.781 "/>
<g>
	<path fill="#939598" d="M373.004,320.164c-8.137,2.316-20.34,5.173-29.723,12.913c-9.695-8.491-25.277-12.171-28.957-12.921
		c-3.27-0.667-8.57-1.451-3.965,0.216c11.227,3.583,29.123,18.655,32.217,23.407c0.406,0.623,0.805,0.623,1.287,0.018
		c3.727-4.672,13.576-13.426,31.746-23.467C377.553,319.321,377.695,318.828,373.004,320.164z"/>
</g>
<g>
	<path d="M183.953,368.367h1.254v3.146h2.311v-3.146h1.254v7.855h-1.254v-3.652h-2.311v3.652h-1.254V368.367z"/>
	<path d="M192.522,368.279h1.188v1.188h-1.188V368.279z M192.522,370.303h1.188v5.919h-1.188V370.303z"/>
	<path d="M198.572,376.728c0,0.363,0.33,0.704,0.858,0.704c0.616,0,1.001-0.429,1.001-1.111v-0.957h-0.021
		c-0.221,0.517-0.77,0.814-1.342,0.814c-1.387,0-1.771-1.364-1.771-2.981c0-1.298,0.197-3.047,1.881-3.047
		c0.693,0,1.188,0.451,1.299,0.88h0.021v-0.726h1.122v5.633c0,1.441-0.616,2.311-2.212,2.311c-1.76,0-1.957-1.034-1.957-1.519
		H198.572z M199.408,375.232c0.925,0,1.023-1.166,1.023-2.101c0-0.968-0.121-2.036-0.945-2.036c-0.858,0-1.002,0.88-1.002,1.98
		C198.484,374.088,198.529,375.232,199.408,375.232z"/>
	<path d="M205.15,368.367h1.188v2.574l0.033,0.022c0.33-0.506,0.848-0.814,1.453-0.814c0.901,0,1.474,0.407,1.474,1.606v4.467
		h-1.188v-4.06c0-0.77-0.23-1.067-0.824-1.067c-0.484,0-0.947,0.385-0.947,1.155v3.972h-1.188V368.367z"/>
	<path d="M218.988,369.423h-1.869v-1.056h4.961v1.056h-1.837v6.799h-1.255V369.423z"/>
	<path d="M225.193,368.367h1.188v2.574l0.033,0.022c0.33-0.506,0.848-0.814,1.452-0.814c0.901,0,1.474,0.407,1.474,1.606v4.467
		h-1.188v-4.06c0-0.77-0.231-1.067-0.825-1.067c-0.484,0-0.946,0.385-0.946,1.155v3.972h-1.188V368.367z"/>
	<path d="M232.959,370.303h1.188v0.924h0.022c0.265-0.66,0.704-1.078,1.375-1.078c0.132,0,0.21,0.022,0.286,0.044v1.21
		c-0.088-0.022-0.297-0.066-0.495-0.066c-0.539,0-1.188,0.242-1.188,1.342v3.542h-1.188V370.303z"/>
	<path d="M240.867,370.149c1.728,0,2.211,1.276,2.211,3.113s-0.561,3.113-2.211,3.113c-1.639,0-2.2-1.276-2.2-3.113
		S239.151,370.149,240.867,370.149z M240.867,375.496c0.869,0,1.023-0.726,1.023-2.233c0-1.309-0.154-2.233-1.023-2.233
		c-0.857,0-1.012,0.924-1.012,2.233C239.855,374.77,240.01,375.496,240.867,375.496z"/>
	<path d="M249.492,375.529h-0.033c-0.297,0.528-0.858,0.847-1.519,0.847c-0.88,0-1.474-0.407-1.474-1.936v-4.137h1.188v4.247
		c0,0.66,0.297,0.88,0.803,0.88s0.969-0.33,0.969-0.99v-4.137h1.188v5.919h-1.121V375.529z"/>
	<path d="M255.42,376.728c0,0.363,0.33,0.704,0.858,0.704c0.616,0,1.001-0.429,1.001-1.111v-0.957h-0.021
		c-0.221,0.517-0.77,0.814-1.342,0.814c-1.387,0-1.771-1.364-1.771-2.981c0-1.298,0.197-3.047,1.881-3.047
		c0.693,0,1.188,0.451,1.299,0.88h0.021v-0.726h1.122v5.633c0,1.441-0.616,2.311-2.212,2.311c-1.76,0-1.957-1.034-1.957-1.519
		H255.42z M256.256,375.232c0.925,0,1.023-1.166,1.023-2.101c0-0.968-0.121-2.036-0.945-2.036c-0.858,0-1.002,0.88-1.002,1.98
		C255.332,374.088,255.377,375.232,256.256,375.232z"/>
	<path d="M261.998,368.367h1.188v2.574l0.033,0.022c0.33-0.506,0.847-0.814,1.452-0.814c0.902,0,1.475,0.407,1.475,1.606v4.467
		h-1.188v-4.06c0-0.77-0.231-1.067-0.825-1.067c-0.484,0-0.946,0.385-0.946,1.155v3.972h-1.188V368.367z"/>
	<path d="M269.765,370.303h1.122v0.726h0.021c0.242-0.528,0.683-0.88,1.332-0.88c1.354,0,1.902,1.155,1.902,3.19
		c0,2.486-1.012,3.036-1.826,3.036c-0.638,0-1.121-0.319-1.342-0.847h-0.021v2.629h-1.188V370.303z M271.898,375.43
		c0.683,0,0.99-0.506,0.99-2.146c0-1.342-0.176-2.189-1.001-2.189c-0.813,0-1.001,0.836-1.001,2.102
		C270.887,374.616,271.062,375.43,271.898,375.43z"/>
	<path d="M280.556,375.529h-0.033c-0.297,0.528-0.858,0.847-1.519,0.847c-0.88,0-1.474-0.407-1.474-1.936v-4.137h1.188v4.247
		c0,0.66,0.297,0.88,0.803,0.88s0.969-0.33,0.969-0.99v-4.137h1.188v5.919h-1.122V375.529z"/>
	<path d="M284.768,370.303h0.814v-1.683h1.188v1.683h0.968v0.88h-0.968v3.531c0,0.462,0.132,0.627,0.539,0.627
		c0.176,0,0.319-0.011,0.429-0.033v0.88c-0.253,0.066-0.583,0.099-0.957,0.099c-0.803,0-1.199-0.22-1.199-1.43v-3.674h-0.814
		V370.303z"/>
	<path d="M300.852,373.406v0.165c0,1.419-0.572,2.805-2.42,2.805c-1.98,0-2.598-1.276-2.598-4.082c0-2.805,0.617-4.082,2.607-4.082
		c2.234,0,2.365,1.65,2.365,2.464v0.143h-1.254v-0.132c0-0.726-0.219-1.562-1.121-1.529c-0.924,0-1.344,0.572-1.344,3.103
		s0.42,3.168,1.344,3.168c1.045,0,1.166-1.167,1.166-1.893v-0.132H300.852z"/>
	<path d="M306.098,370.149c1.727,0,2.211,1.276,2.211,3.113s-0.561,3.113-2.211,3.113c-1.639,0-2.201-1.276-2.201-3.113
		S304.381,370.149,306.098,370.149z M306.098,375.496c0.869,0,1.023-0.726,1.023-2.233c0-1.309-0.154-2.233-1.023-2.233
		c-0.857,0-1.012,0.924-1.012,2.233C305.086,374.77,305.24,375.496,306.098,375.496z"/>
	<path d="M311.752,370.303h1.121v0.693h0.033c0.297-0.528,0.859-0.847,1.42-0.847c0.848,0,1.199,0.407,1.375,0.902
		c0.342-0.572,0.781-0.902,1.496-0.902c0.836,0,1.441,0.429,1.441,1.573v4.5h-1.188v-4.06c0-0.77-0.232-1.067-0.717-1.067
		c-0.482,0-0.945,0.385-0.945,1.155v3.972h-1.188v-4.06c0-0.77-0.232-1.067-0.727-1.067c-0.473,0-0.936,0.385-0.936,1.155v3.972
		h-1.188V370.303z"/>
	<path d="M322.311,370.303h1.123v0.726h0.021c0.242-0.528,0.682-0.88,1.332-0.88c1.352,0,1.902,1.155,1.902,3.19
		c0,2.486-1.012,3.036-1.826,3.036c-0.639,0-1.123-0.319-1.342-0.847H323.5v2.629h-1.189V370.303z M324.445,375.43
		c0.682,0,0.99-0.506,0.99-2.146c0-1.342-0.176-2.189-1.002-2.189c-0.814,0-1,0.836-1,2.102
		C323.434,374.616,323.609,375.43,324.445,375.43z"/>
	<path d="M333.102,375.529h-0.033c-0.297,0.528-0.857,0.847-1.518,0.847c-0.881,0-1.475-0.407-1.475-1.936v-4.137h1.189v4.247
		c0,0.66,0.297,0.88,0.803,0.88s0.967-0.33,0.967-0.99v-4.137h1.189v5.919h-1.123V375.529z"/>
	<path d="M337.314,370.303h0.814v-1.683h1.188v1.683h0.969v0.88h-0.969v3.531c0,0.462,0.133,0.627,0.539,0.627
		c0.178,0,0.32-0.011,0.43-0.033v0.88c-0.252,0.066-0.582,0.099-0.957,0.099c-0.803,0-1.199-0.22-1.199-1.43v-3.674h-0.814V370.303z
		"/>
	<path d="M343.432,368.279h1.188v1.188h-1.188V368.279z M343.432,370.303h1.188v5.919h-1.188V370.303z"/>
	<path d="M348.293,370.303h1.123v0.693h0.033c0.297-0.528,0.857-0.847,1.518-0.847c0.902,0,1.475,0.407,1.475,1.606v4.467h-1.189
		v-4.06c0-0.77-0.23-1.067-0.824-1.067c-0.484,0-0.945,0.385-0.945,1.155v3.972h-1.189V370.303z"/>
	<path d="M357.248,376.728c0,0.363,0.328,0.704,0.857,0.704c0.615,0,1-0.429,1-1.111v-0.957h-0.021
		c-0.219,0.517-0.77,0.814-1.342,0.814c-1.387,0-1.771-1.364-1.771-2.981c0-1.298,0.197-3.047,1.881-3.047
		c0.693,0,1.189,0.451,1.299,0.88h0.021v-0.726h1.123v5.633c0,1.441-0.617,2.311-2.211,2.311c-1.762,0-1.959-1.034-1.959-1.519
		H357.248z M358.084,375.232c0.924,0,1.021-1.166,1.021-2.101c0-0.968-0.121-2.036-0.945-2.036c-0.857,0-1.002,0.88-1.002,1.98
		C357.158,374.088,357.203,375.232,358.084,375.232z"/>
</g>
<path d="M349.978,340.637l-1.922,1.871c1.871,1.904,2.81,4.803,2.81,7.709c0,4.949-2.699,9.9-8.145,9.9s-8.145-4.951-8.145-9.9
	c0-3.27,1.186-6.527,3.553-8.371l-1.963-1.812c-2.897,2.229-4.426,6-4.426,10.184c0,6.66,3.871,12.285,10.98,12.285
	s10.98-5.625,10.98-12.285C353.701,346.388,352.415,342.908,349.978,340.637z"/>
<path d="M325.479,331.322v11.695h-0.09c-1.215-3.33-4.59-5.084-8.055-5.084c-7.063,0-10.438,5.713-10.438,12.283
	s3.375,12.285,10.438,12.285c3.375,0,7.065-2.07,8.28-5.086h0.09v4.41h2.61v-28.398L325.479,331.322z M317.335,360.117
	c-5.399,0-7.604-5.086-7.604-9.9s2.205-9.898,7.604-9.898c6.03,0,8.145,5.084,8.145,9.898S323.365,360.117,317.335,360.117z"/>
</svg>
