<?xml version="1.0" standalone="no"?>
<!DOCTYPE svg PUBLIC "-//W3C//DTD SVG 20010904//EN"
 "http://www.w3.org/TR/2001/REC-SVG-20010904/DTD/svg10.dtd">
<svg version="1.0" xmlns="http://www.w3.org/2000/svg"
 width="2176.000000pt" height="2176.000000pt" viewBox="0 0 2176.000000 2176.000000"
 preserveAspectRatio="xMidYMid meet">
<metadata>
Created by potrace 1.14, written by Peter Selinger 2001-2017
</metadata>
<g transform="translate(0.000000,2176.000000) scale(0.100000,-0.100000)"
fill="#000000" stroke="none">
<path d="M21577 14834 c-1 -2 -18 -5 -37 -8 -19 -2 -46 -7 -60 -10 -14 -4 -38
-9 -55 -11 -16 -3 -37 -8 -45 -10 -8 -2 -26 -6 -40 -9 -14 -2 -43 -9 -65 -14
-139 -37 -172 -45 -190 -48 -22 -3 -268 -73 -548 -154 -98 -28 -186 -53 -195
-55 -9 -2 -66 -18 -127 -35 -60 -18 -119 -34 -130 -36 -11 -2 -31 -8 -45 -13
-14 -5 -38 -13 -55 -17 -16 -4 -34 -8 -40 -10 -77 -22 -123 -35 -135 -38 -8
-2 -35 -9 -60 -16 -25 -7 -46 -12 -47 -11 -2 0 -21 -6 -44 -14 -23 -9 -51 -17
-63 -19 -12 -3 -84 -23 -161 -45 -158 -45 -442 -125 -525 -147 -30 -8 -66 -19
-80 -24 -14 -5 -34 -11 -45 -13 -11 -2 -27 -7 -35 -10 -19 -7 -199 -58 -223
-62 -9 -2 -22 -7 -27 -10 -5 -3 -18 -8 -29 -10 -22 -4 -260 -74 -281 -82 -8
-3 -19 -7 -25 -8 -5 -1 -12 -3 -15 -4 -3 -2 -12 -4 -20 -6 -8 -2 -51 -15 -95
-29 -44 -14 -85 -26 -92 -26 -6 0 -22 -4 -35 -9 -13 -5 -27 -10 -33 -11 -5 -2
-40 -13 -77 -26 -36 -12 -69 -20 -72 -16 -3 3 -6 1 -6 -5 0 -5 -6 -10 -12 -11
-21 -1 -51 -9 -83 -23 -16 -6 -37 -13 -45 -14 -18 -3 -186 -56 -248 -79 -23
-8 -44 -15 -47 -15 -12 -1 -61 -14 -70 -20 -7 -4 -400 -138 -540 -185 -5 -1
-23 -6 -40 -11 -16 -4 -34 -10 -40 -14 -5 -3 -14 -7 -20 -8 -15 -3 -177 -62
-200 -72 -11 -5 -40 -16 -65 -24 -79 -27 -274 -98 -307 -113 -17 -8 -33 -14
-36 -14 -3 0 -18 -5 -34 -12 -15 -6 -32 -12 -38 -13 -5 -2 -50 -19 -100 -38
-49 -19 -121 -47 -160 -62 -38 -15 -76 -32 -82 -37 -7 -6 -13 -7 -13 -2 0 4
-5 3 -12 -4 -7 -7 -18 -12 -25 -12 -7 0 -35 -9 -61 -21 -26 -11 -60 -26 -77
-33 -60 -27 -210 -87 -220 -89 -5 -2 -14 -5 -20 -9 -5 -3 -55 -24 -110 -47
-55 -23 -113 -49 -130 -58 -16 -10 -31 -16 -33 -15 -1 1 -26 -8 -55 -21 -69
-32 -91 -40 -99 -39 -5 1 -8 -2 -8 -8 0 -5 -6 -10 -13 -10 -8 0 -46 -16 -86
-35 -39 -19 -78 -35 -86 -35 -8 0 -15 -4 -15 -9 0 -5 -10 -13 -22 -17 -31 -9
-127 -53 -288 -132 -74 -36 -138 -65 -142 -64 -5 1 -8 -2 -8 -8 0 -5 -8 -10
-19 -10 -10 0 -24 -7 -31 -15 -7 -8 -17 -15 -23 -15 -10 0 -197 -90 -207 -100
-3 -3 -27 -16 -55 -29 -27 -14 -53 -29 -57 -35 -4 -6 -8 -7 -8 -3 0 5 -15 0
-32 -11 -18 -11 -66 -37 -107 -58 -40 -22 -94 -50 -120 -64 -25 -14 -82 -45
-126 -69 -44 -24 -92 -52 -107 -62 -14 -11 -29 -19 -33 -19 -4 0 -50 -26 -103
-57 -54 -31 -99 -55 -101 -54 -2 2 -7 -1 -10 -6 -3 -5 -84 -56 -179 -113 -95
-58 -184 -112 -197 -120 -47 -31 -137 -85 -156 -95 -10 -5 -19 -13 -19 -17 0
-5 -6 -8 -14 -8 -7 0 -19 -7 -26 -15 -7 -9 -28 -23 -46 -31 -19 -9 -34 -20
-34 -25 0 -5 -5 -9 -10 -9 -6 0 -39 -20 -74 -45 -36 -25 -69 -45 -75 -45 -5 0
-11 -4 -13 -9 -1 -5 -55 -44 -118 -87 -101 -68 -142 -97 -187 -134 -7 -6 -15
-10 -17 -10 -3 0 -14 -7 -23 -15 -24 -20 -262 -198 -282 -210 -9 -5 -18 -13
-21 -16 -3 -3 -36 -30 -75 -59 -38 -30 -75 -59 -82 -64 -15 -13 -24 -21 -83
-66 -25 -19 -53 -43 -62 -53 -17 -19 -19 -18 -65 19 -26 22 -58 48 -70 59 -29
27 -94 80 -217 180 -21 17 -47 38 -59 48 -12 10 -35 28 -50 40 -16 12 -54 42
-86 67 -61 48 -80 62 -200 152 -42 31 -84 63 -93 72 -10 9 -20 16 -22 16 -8 0
-221 154 -224 162 -2 4 -9 8 -16 8 -7 0 -22 8 -34 18 -12 10 -85 61 -164 113
-79 52 -144 97 -146 102 -2 4 -8 7 -13 7 -10 0 -90 49 -99 61 -3 3 -30 21 -60
38 -77 45 -94 55 -100 62 -10 11 -111 69 -120 69 -6 0 -10 5 -10 10 0 6 -4 10
-8 10 -7 0 -205 114 -292 168 -14 9 -27 15 -29 13 -2 -1 -7 1 -10 6 -3 4 -16
14 -29 21 -219 122 -377 210 -462 254 -58 30 -122 65 -143 77 -21 11 -44 21
-51 21 -8 0 -16 4 -18 8 -2 7 -572 295 -588 297 -3 1 -34 15 -70 32 -66 30
-116 54 -268 125 -45 21 -84 38 -86 38 -2 0 -42 17 -88 38 -45 21 -123 56
-173 77 -49 21 -112 48 -138 61 -27 13 -53 24 -58 24 -4 0 -32 11 -61 24 -29
13 -100 43 -158 66 -58 23 -124 51 -147 61 -23 11 -45 19 -48 19 -4 0 -23 7
-43 16 -51 22 -63 27 -187 74 -60 23 -119 46 -130 50 -35 15 -320 122 -330
124 -5 2 -21 8 -35 13 -14 6 -79 29 -145 52 -66 23 -128 46 -137 51 -10 5 -34
14 -55 19 -21 6 -123 40 -228 76 -104 36 -244 84 -310 105 -66 21 -133 44
-150 50 -16 6 -30 11 -30 10 0 -1 -7 1 -15 4 -8 2 -46 14 -85 26 -38 12 -77
24 -85 27 -8 3 -19 7 -25 9 -20 6 -112 33 -200 59 -49 14 -97 28 -105 31 -8 3
-17 6 -20 6 -3 0 -16 5 -30 10 -14 5 -32 11 -40 13 -24 5 -523 147 -540 153
-15 5 -177 48 -217 57 -12 3 -34 10 -48 15 -14 5 -25 8 -25 5 0 -2 -18 2 -40
10 -22 8 -40 12 -40 8 0 -3 -7 0 -15 7 -8 7 -15 10 -15 7 0 -2 -33 4 -72 15
-40 10 -82 21 -93 24 -16 3 -127 30 -205 50 -58 14 -199 47 -215 49 -11 2 -21
4 -22 5 -4 3 -10 5 -63 15 -25 5 -47 9 -50 10 -31 9 -60 16 -83 19 -15 3 -35
7 -45 10 -9 3 -28 7 -42 10 -14 2 -72 14 -130 26 -185 37 -200 40 -235 46 -16
3 -43 9 -60 14 -16 4 -48 11 -70 15 -88 15 -106 19 -185 35 -30 6 -70 13 -88
15 -18 2 -41 6 -50 9 -15 5 -74 16 -227 41 -59 10 -76 13 -120 19 -39 6 -68
11 -122 21 -16 3 -46 8 -68 10 -22 2 -56 6 -75 9 -53 9 -110 16 -160 21 -25 3
-58 7 -75 9 -114 17 -322 25 -390 14 -34 -5 -55 -15 -55 -27 0 -13 45 -61 57
-61 6 0 13 -4 15 -8 3 -8 189 -102 201 -102 2 0 22 -8 43 -17 22 -9 41 -17 44
-18 3 -1 23 -9 44 -18 21 -10 57 -24 80 -32 216 -76 333 -117 346 -120 14 -4
97 -35 175 -65 17 -6 31 -11 32 -11 2 0 28 -11 58 -24 31 -14 62 -25 70 -25 8
0 15 -5 15 -12 0 -6 3 -9 6 -6 4 5 68 -20 199 -77 17 -7 64 -27 105 -45 41
-18 112 -50 157 -71 125 -58 157 -72 166 -71 4 1 7 -3 7 -8 0 -6 9 -10 20 -10
11 0 20 -4 20 -10 0 -5 6 -10 12 -10 16 0 462 -222 466 -232 2 -5 9 -8 17 -8
12 0 105 -48 115 -59 3 -3 11 -7 18 -9 7 -1 31 -14 52 -27 22 -14 40 -22 40
-19 0 4 8 1 18 -8 9 -8 46 -29 82 -48 36 -18 76 -41 90 -50 14 -9 40 -23 58
-31 17 -8 32 -17 32 -21 0 -5 6 -8 14 -8 8 0 22 -7 30 -16 9 -8 16 -13 16 -10
0 2 77 -40 171 -95 94 -54 175 -99 180 -99 5 0 9 -4 9 -9 0 -5 8 -11 18 -14
19 -7 43 -21 203 -119 58 -35 113 -67 122 -71 10 -4 17 -11 17 -17 0 -6 4 -9
9 -6 5 3 14 -1 21 -9 7 -8 16 -15 21 -15 4 0 28 -13 52 -30 25 -16 49 -30 54
-30 6 0 18 -9 28 -20 10 -11 22 -20 26 -20 9 0 218 -131 321 -201 32 -22 62
-39 66 -39 5 0 17 -9 27 -20 10 -11 22 -20 26 -20 12 0 463 -301 467 -311 2
-5 8 -9 14 -9 5 0 60 -35 121 -77 258 -177 503 -348 515 -360 7 -7 17 -13 22
-13 5 0 15 -6 22 -13 7 -7 60 -46 118 -87 58 -41 107 -78 108 -82 2 -5 8 -8
13 -8 5 0 37 -21 71 -47 35 -26 68 -51 73 -55 60 -45 106 -78 111 -78 3 0 11
-6 18 -12 7 -7 24 -21 37 -31 126 -92 285 -212 287 -219 2 -4 10 -8 18 -8 8 0
17 -7 20 -15 4 -8 10 -15 16 -15 5 0 33 -19 63 -42 29 -24 103 -81 165 -128
61 -47 120 -92 130 -101 10 -8 31 -24 45 -35 15 -10 73 -55 129 -99 56 -44
117 -91 136 -105 18 -14 45 -36 59 -49 14 -13 37 -31 51 -40 24 -15 35 -24 86
-68 12 -10 36 -29 54 -43 49 -37 151 -119 180 -144 14 -11 41 -33 60 -47 19
-15 44 -35 55 -46 11 -10 38 -32 59 -48 22 -17 53 -42 70 -56 17 -15 101 -84
186 -155 85 -70 162 -135 171 -143 9 -9 36 -32 60 -51 41 -33 130 -109 264
-224 33 -28 70 -61 83 -73 13 -13 25 -23 28 -23 3 0 15 -10 28 -22 13 -13 49
-45 81 -73 32 -27 69 -60 82 -72 14 -12 52 -46 85 -75 97 -85 121 -107 158
-141 19 -18 80 -72 135 -122 54 -49 126 -115 159 -146 34 -31 77 -71 96 -89
219 -201 714 -690 900 -890 58 -62 119 -127 135 -145 17 -18 55 -61 85 -96 93
-108 105 -121 115 -133 6 -6 40 -47 75 -91 36 -44 68 -81 72 -83 5 -2 8 -8 8
-14 0 -10 33 -55 65 -89 8 -9 15 -21 15 -27 0 -7 5 -12 10 -12 6 0 10 -7 10
-15 0 -8 4 -15 8 -15 4 0 16 -14 26 -30 27 -47 93 -110 131 -126 42 -17 74
-18 112 -2 15 6 31 12 34 12 3 1 25 17 49 36 36 29 79 79 230 263 8 10 24 29
35 41 11 13 38 44 60 70 42 51 45 54 150 171 39 42 81 89 94 104 13 14 92 97
175 184 83 87 152 163 154 168 2 5 7 9 10 9 4 0 91 82 193 183 102 100 236
229 298 287 62 58 132 123 155 145 24 22 80 73 127 114 46 41 94 84 106 96 11
12 41 39 66 59 25 20 62 52 82 71 20 19 41 35 46 35 5 0 9 7 9 15 0 8 5 15 10
15 5 0 18 8 28 18 32 29 136 119 167 144 16 13 44 37 62 53 18 17 49 44 69 60
20 17 51 42 68 57 17 14 78 65 136 113 58 47 125 103 150 124 39 34 190 155
306 246 21 17 54 44 74 60 20 17 52 41 70 55 18 14 38 30 44 35 6 6 31 26 56
45 25 19 47 38 48 42 2 5 10 8 17 8 7 0 15 4 17 8 2 4 64 55 138 112 74 58
137 108 138 112 2 5 10 8 17 8 7 0 15 3 17 8 2 4 39 34 83 67 44 33 82 62 85
65 3 3 30 23 60 45 30 22 57 42 60 45 3 3 39 30 80 60 41 30 80 58 85 63 21
16 262 193 285 209 14 10 64 46 112 80 47 35 139 101 205 147 65 46 120 87
123 90 3 3 13 11 22 16 10 6 120 82 245 170 125 88 235 163 245 167 10 4 18
12 18 18 0 5 5 10 10 10 12 0 73 41 78 53 2 4 10 7 18 7 8 0 14 5 14 10 0 6 6
10 14 10 8 0 16 4 18 8 2 5 80 59 173 122 94 62 172 117 173 122 2 4 8 8 14 8
6 0 38 19 72 43 34 23 69 47 78 52 8 6 95 63 192 128 97 64 180 117 185 117 5
0 11 3 13 8 2 4 28 23 58 42 30 19 61 40 68 47 7 7 20 13 28 13 8 0 14 4 14 9
0 4 20 19 45 32 25 13 45 27 45 30 0 4 14 12 30 19 17 7 30 16 30 21 0 5 5 9
10 9 9 0 87 47 100 60 10 10 45 31 63 36 9 4 17 10 17 14 0 5 9 12 20 15 11 3
26 12 33 18 7 7 28 21 47 31 19 11 40 24 45 29 6 4 34 23 62 40 153 93 228
142 231 149 2 4 8 8 13 8 5 0 28 12 52 27 23 15 50 32 59 38 9 5 50 30 90 55
40 25 77 47 83 49 5 2 14 8 20 13 15 14 288 179 305 186 8 3 17 8 20 12 8 10
342 210 351 210 5 0 9 3 9 8 0 4 10 12 23 18 18 9 330 192 762 448 39 22 81
47 95 53 14 7 43 24 65 38 22 14 47 28 55 32 8 4 17 9 20 13 3 4 19 13 35 21
45 23 147 80 175 98 14 10 36 22 50 29 14 6 32 16 40 22 42 28 210 120 219
120 6 0 11 3 11 8 0 4 10 12 23 18 21 10 74 39 187 103 30 17 100 54 155 82
146 73 226 117 262 145 17 13 34 24 38 24 3 0 19 14 36 31 20 20 28 37 24 49
-5 16 -17 18 -90 18 -47 -1 -86 -3 -88 -4z"/>
</g>
</svg>
