<?xml version="1.0" encoding="utf-8"?>
<!-- Generator: Adobe Illustrator 15.1.0, SVG Export Plug-In . SVG Version: 6.00 Build 0)  -->
<!DOCTYPE svg PUBLIC "-//W3C//DTD SVG 1.1//EN" "http://www.w3.org/Graphics/SVG/1.1/DTD/svg11.dtd">
<svg version="1.1" id="Layer_1" xmlns="http://www.w3.org/2000/svg" xmlns:xlink="http://www.w3.org/1999/xlink" x="0px" y="0px"
	 width="612px" height="792px" viewBox="0 0 612 792" enable-background="new 0 0 612 792" xml:space="preserve">
<polygon points="202.095,388.148 189.493,388.148 189.493,375.279 182.039,375.279 182.039,407.654 189.493,407.654 
	189.493,394.785 202.095,394.785 202.095,407.654 209.549,407.654 209.549,382.115 202.095,382.115 "/>
<path stroke="#000000" stroke-width="0.4" d="M250.251,386.541c-0.448-3.057-3.492-5.381-6.984-5.381
	c-6.312,0-8.686,5.166-8.686,10.547c0,5.123,2.373,10.287,8.686,10.287c4.297,0,6.715-2.84,7.252-6.887h6.805
	c-0.716,7.662-6.223,12.57-14.057,12.57c-9.895,0-15.714-7.105-15.714-15.971c0-9.127,5.819-16.23,15.714-16.23
	c7.028,0,12.938,3.961,13.789,11.064H250.251z"/>
<path d="M282.091,395.715c0,6.66-3.87,12.285-10.979,12.285c-7.11,0-10.979-5.625-10.979-12.285s3.869-12.283,10.979-12.283
	C278.221,383.432,282.091,389.055,282.091,395.715z M262.966,395.715c0,4.949,2.701,9.9,8.146,9.9s8.145-4.951,8.145-9.9
	s-2.7-9.898-8.145-9.898S262.966,390.766,262.966,395.715z"/>
<path d="M284.477,384.105h2.835v4.006h0.09c1.035-2.791,4.14-4.68,7.425-4.68c6.525,0,8.505,3.418,8.505,8.953v14.939h-2.835
	v-14.488c0-4.006-1.305-7.02-5.895-7.02c-4.5,0-7.2,3.42-7.29,7.963v13.545h-2.835V384.105z"/>
<path d="M355.835,384.105h2.609v5.445h0.09c1.44-3.734,4.59-5.939,8.775-5.76v2.834c-5.131-0.27-8.641,3.51-8.641,8.326v12.373
	h-2.834V384.105z"/>
<polygon points="242.284,375.279 202.094,375.279 202.094,382.113 215.235,382.113 215.235,407.654 223.059,407.654 
	223.059,382.137 235.469,382.137 "/>
<g>
	<path d="M372.004,365.662c-8.137,2.316-20.34,5.173-29.723,12.912c-9.695-8.49-25.277-12.171-28.957-12.921
		c-3.27-0.667-8.57-1.451-3.965,0.216c11.227,3.583,29.123,18.654,32.217,23.406c0.406,0.623,0.805,0.623,1.287,0.019
		c3.727-4.673,13.576-13.427,31.746-23.468C376.553,364.819,376.695,364.326,372.004,365.662z"/>
</g>
<path d="M348.978,386.135l-1.922,1.871c1.871,1.904,2.81,4.803,2.81,7.709c0,4.949-2.699,9.9-8.145,9.9s-8.145-4.951-8.145-9.9
	c0-3.269,1.186-6.527,3.553-8.37l-1.963-1.812c-2.897,2.229-4.426,6-4.426,10.183c0,6.66,3.871,12.285,10.98,12.285
	s10.98-5.625,10.98-12.285C352.701,391.886,351.415,388.407,348.978,386.135z"/>
<path d="M324.479,376.82v11.695h-0.09c-1.215-3.33-4.59-5.084-8.055-5.084c-7.063,0-10.438,5.713-10.438,12.283
	S309.271,408,316.335,408c3.375,0,7.065-2.07,8.28-5.086h0.09v4.41h2.61v-28.398L324.479,376.82z M316.335,405.615
	c-5.399,0-7.604-5.086-7.604-9.9s2.205-9.898,7.604-9.898c6.03,0,8.145,5.084,8.145,9.898S322.365,405.615,316.335,405.615z"/>
</svg>
