<?xml version="1.0" encoding="utf-8"?>
<!-- Generator: Adobe Illustrator 15.1.0, SVG Export Plug-In . SVG Version: 6.00 Build 0)  -->
<!DOCTYPE svg PUBLIC "-//W3C//DTD SVG 1.1//EN" "http://www.w3.org/Graphics/SVG/1.1/DTD/svg11.dtd">
<svg version="1.1" id="Layer_1" xmlns="http://www.w3.org/2000/svg" xmlns:xlink="http://www.w3.org/1999/xlink" x="0px" y="0px"
	 width="612px" height="792px" viewBox="0 0 612 792" enable-background="new 0 0 612 792" xml:space="preserve">
<polygon fill="#FFFFFF" points="202.321,388.167 189.72,388.167 189.72,375.298 182.266,375.298 182.266,407.673 189.72,407.673 
	189.72,394.804 202.321,394.804 202.321,407.673 209.775,407.673 209.775,381.989 202.321,381.989 "/>
<path fill="#FFFFFF" stroke="#FFFFFF" stroke-width="0.4" d="M250.251,386.56c-0.448-3.057-3.492-5.381-6.984-5.381
	c-6.312,0-8.686,5.166-8.686,10.547c0,5.123,2.373,10.287,8.686,10.287c4.297,0,6.715-2.84,7.252-6.887h6.805
	c-0.716,7.662-6.223,12.57-14.057,12.57c-9.895,0-15.714-7.105-15.714-15.971c0-9.127,5.819-16.23,15.714-16.23
	c7.028,0,12.938,3.961,13.789,11.064H250.251z"/>
<path fill="#FFFFFF" d="M282.091,395.733c0,6.66-3.87,12.285-10.979,12.285c-7.11,0-10.979-5.625-10.979-12.285
	s3.869-12.283,10.979-12.283C278.221,383.45,282.091,389.073,282.091,395.733z M262.966,395.733c0,4.949,2.701,9.9,8.146,9.9
	s8.145-4.951,8.145-9.9s-2.7-9.898-8.145-9.898S262.966,390.784,262.966,395.733z"/>
<path fill="#FFFFFF" d="M284.477,384.124h2.835v4.006h0.09c1.035-2.791,4.14-4.68,7.425-4.68c6.525,0,8.505,3.418,8.505,8.953
	v14.939h-2.835v-14.488c0-4.006-1.305-7.02-5.895-7.02c-4.5,0-7.2,3.42-7.29,7.963v13.545h-2.835V384.124z"/>
<path fill="#FFFFFF" d="M355.835,384.124h2.609v5.445h0.09c1.44-3.734,4.59-5.939,8.775-5.76v2.834
	c-5.131-0.27-8.641,3.51-8.641,8.326v12.373h-2.834V384.124z"/>
<polygon fill="#FFFFFF" points="242.684,375.298 202.32,375.298 202.32,382.132 215.349,382.132 215.349,407.673 223.172,407.673 
	223.172,382.155 235.869,382.155 "/>
<g>
	<path fill="#FFFFFF" d="M372.004,365.675c-8.137,2.316-20.34,5.174-29.723,12.912c-9.695-8.49-25.277-12.17-28.957-12.92
		c-3.27-0.668-8.57-1.451-3.965,0.215c11.227,3.584,29.123,18.654,32.217,23.406c0.406,0.623,0.805,0.623,1.287,0.02
		c3.727-4.674,13.576-13.428,31.746-23.469C376.553,364.833,376.695,364.339,372.004,365.675z"/>
</g>
<path fill="#FFFFFF" d="M348.978,386.155l-1.922,1.869c1.871,1.904,2.81,4.803,2.81,7.709c0,4.949-2.699,9.9-8.145,9.9
	s-8.145-4.951-8.145-9.9c0-3.268,1.186-6.527,3.553-8.369l-1.963-1.812c-2.897,2.229-4.426,6-4.426,10.182
	c0,6.66,3.871,12.285,10.98,12.285s10.98-5.625,10.98-12.285C352.701,391.905,351.415,388.427,348.978,386.155z"/>
<path fill="#FFFFFF" d="M324.479,376.839v11.695h-0.09c-1.215-3.33-4.59-5.084-8.055-5.084c-7.063,0-10.438,5.713-10.438,12.283
	s3.375,12.285,10.438,12.285c3.375,0,7.065-2.07,8.28-5.086h0.09v4.41h2.61v-28.398L324.479,376.839z M316.335,405.634
	c-5.399,0-7.604-5.086-7.604-9.9s2.205-9.898,7.604-9.898c6.03,0,8.145,5.084,8.145,9.898S322.365,405.634,316.335,405.634z"/>
</svg>
