<?xml version="1.0" encoding="utf-8"?>
<!-- Generator: Adobe Illustrator 15.1.0, SVG Export Plug-In . SVG Version: 6.00 Build 0)  -->
<!DOCTYPE svg PUBLIC "-//W3C//DTD SVG 1.1//EN" "http://www.w3.org/Graphics/SVG/1.1/DTD/svg11.dtd">
<svg version="1.1" id="Layer_1" xmlns="http://www.w3.org/2000/svg" xmlns:xlink="http://www.w3.org/1999/xlink" x="0px" y="0px"
	 width="612px" height="792px" viewBox="0 0 612 792" enable-background="new 0 0 612 792" xml:space="preserve">
<polygon points="201.896,387.65 189.294,387.65 189.294,374.781 181.84,374.781 181.84,407.156 189.294,407.156 189.294,394.287 
	201.896,394.287 201.896,407.156 209.35,407.156 209.35,381.617 201.896,381.617 "/>
<path stroke="#000000" stroke-width="0.4" d="M249.251,386.043c-0.448-3.057-3.492-5.381-6.984-5.381
	c-6.312,0-8.686,5.166-8.686,10.547c0,5.123,2.373,10.287,8.686,10.287c4.297,0,6.715-2.84,7.252-6.887h6.805
	c-0.716,7.662-6.223,12.57-14.057,12.57c-9.895,0-15.714-7.105-15.714-15.971c0-9.127,5.819-16.23,15.714-16.23
	c7.028,0,12.938,3.961,13.789,11.064H249.251z"/>
<path d="M281.091,395.217c0,6.66-3.87,12.285-10.979,12.285c-7.11,0-10.979-5.625-10.979-12.285s3.869-12.283,10.979-12.283
	C277.221,382.934,281.091,388.557,281.091,395.217z M261.966,395.217c0,4.949,2.701,9.9,8.146,9.9s8.145-4.951,8.145-9.9
	s-2.7-9.898-8.145-9.898S261.966,390.268,261.966,395.217z"/>
<path d="M283.477,383.607h2.835v4.006h0.09c1.035-2.791,4.14-4.68,7.425-4.68c6.525,0,8.505,3.418,8.505,8.953v14.939h-2.835
	v-14.488c0-4.006-1.305-7.02-5.895-7.02c-4.5,0-7.2,3.42-7.29,7.963v13.545h-2.835V383.607z"/>
<path d="M354.835,383.607h2.609v5.445h0.09c1.44-3.734,4.59-5.939,8.775-5.76v2.834c-5.131-0.27-8.641,3.51-8.641,8.326v12.373
	h-2.834V383.607z"/>
<polygon points="241.582,374.781 232.649,374.781 234.524,377.654 "/>
<polyline fill="#939598" points="201.895,374.781 201.895,381.615 214.636,381.615 214.636,407.156 222.459,407.156 
	222.459,381.639 235.27,381.639 235.27,374.781 "/>
<g>
	<path fill="#939598" d="M371.004,365.164c-8.137,2.316-20.34,5.173-29.723,12.913c-9.695-8.491-25.277-12.171-28.957-12.921
		c-3.27-0.667-8.57-1.451-3.965,0.216c11.227,3.583,29.123,18.655,32.217,23.407c0.406,0.623,0.805,0.623,1.287,0.018
		c3.727-4.672,13.576-13.426,31.746-23.467C375.553,364.321,375.695,363.828,371.004,365.164z"/>
</g>
<path d="M347.978,385.637l-1.922,1.871c1.871,1.904,2.81,4.803,2.81,7.709c0,4.949-2.699,9.9-8.145,9.9s-8.145-4.951-8.145-9.9
	c0-3.27,1.186-6.527,3.553-8.371l-1.963-1.812c-2.897,2.229-4.426,6-4.426,10.184c0,6.66,3.871,12.285,10.98,12.285
	s10.98-5.625,10.98-12.285C351.701,391.388,350.415,387.908,347.978,385.637z"/>
<path d="M323.479,376.322v11.695h-0.09c-1.215-3.33-4.59-5.084-8.055-5.084c-7.063,0-10.438,5.713-10.438,12.283
	s3.375,12.285,10.438,12.285c3.375,0,7.065-2.07,8.28-5.086h0.09v4.41h2.61v-28.398L323.479,376.322z M315.335,405.117
	c-5.399,0-7.604-5.086-7.604-9.9s2.205-9.898,7.604-9.898c6.03,0,8.145,5.084,8.145,9.898S321.365,405.117,315.335,405.117z"/>
</svg>
