<?xml version="1.0" encoding="utf-8"?>
<!-- Generator: Adobe Illustrator 15.1.0, SVG Export Plug-In . SVG Version: 6.00 Build 0)  -->
<!DOCTYPE svg PUBLIC "-//W3C//DTD SVG 1.1//EN" "http://www.w3.org/Graphics/SVG/1.1/DTD/svg11.dtd">
<svg version="1.1" id="Layer_1" xmlns="http://www.w3.org/2000/svg" xmlns:xlink="http://www.w3.org/1999/xlink" x="0px" y="0px"
	 width="612px" height="792px" viewBox="0 0 612 792" enable-background="new 0 0 612 792" xml:space="preserve">
<path fill="#FFFFFF" d="M281.091,395.232c0,6.66-3.87,12.285-10.979,12.285c-7.11,0-10.979-5.625-10.979-12.285
	s3.869-12.283,10.979-12.283C277.221,382.949,281.091,388.572,281.091,395.232z M261.966,395.232c0,4.949,2.701,9.9,8.146,9.9
	s8.145-4.951,8.145-9.9s-2.7-9.898-8.145-9.898S261.966,390.283,261.966,395.232z"/>
<path fill="#FFFFFF" d="M283.477,383.623h2.835v4.006h0.09c1.035-2.791,4.14-4.68,7.425-4.68c6.525,0,8.505,3.418,8.505,8.953
	v14.939h-2.835v-14.488c0-4.006-1.305-7.02-5.895-7.02c-4.5,0-7.2,3.42-7.29,7.963v13.545h-2.835V383.623z"/>
<path fill="#FFFFFF" d="M354.835,383.623h2.609v5.445h0.09c1.44-3.734,4.59-5.939,8.775-5.76v2.834
	c-5.131-0.27-8.641,3.51-8.641,8.326v12.373h-2.834V383.623z"/>
<g>
	<path fill="#D31245" d="M371.004,365.18c-8.137,2.316-20.34,5.174-29.723,12.912c-9.695-8.49-25.277-12.17-28.957-12.92
		c-3.27-0.668-8.57-1.451-3.965,0.215c11.227,3.584,29.123,18.654,32.217,23.406c0.406,0.623,0.805,0.623,1.287,0.02
		c3.727-4.674,13.576-13.428,31.746-23.469C375.553,364.338,375.695,363.844,371.004,365.18z"/>
</g>
<path fill="#FFFFFF" d="M347.978,385.653l-1.922,1.87c1.871,1.904,2.81,4.803,2.81,7.709c0,4.949-2.699,9.9-8.145,9.9
	s-8.145-4.951-8.145-9.9c0-3.268,1.186-6.527,3.553-8.369l-1.963-1.812c-2.897,2.229-4.426,6-4.426,10.182
	c0,6.66,3.871,12.285,10.98,12.285s10.98-5.625,10.98-12.285C351.701,391.404,350.415,387.926,347.978,385.653z"/>
<path fill="#FFFFFF" d="M323.479,376.338v11.695h-0.09c-1.215-3.33-4.59-5.084-8.055-5.084c-7.063,0-10.438,5.713-10.438,12.283
	s3.375,12.285,10.438,12.285c3.375,0,7.065-2.07,8.28-5.086h0.09v4.41h2.61v-28.398L323.479,376.338z M315.335,405.133
	c-5.399,0-7.604-5.086-7.604-9.9s2.205-9.898,7.604-9.898c6.03,0,8.145,5.084,8.145,9.898S321.365,405.133,315.335,405.133z"/>
<g>
	<polygon fill="#FFFFFF" points="201.995,387.417 189.394,387.417 189.394,374.548 181.939,374.548 181.939,406.923 
		189.394,406.923 189.394,394.054 201.995,394.054 201.995,406.923 209.449,406.923 209.449,381.384 201.995,381.384 	"/>
	<path fill="#FFFFFF" stroke="#FFFFFF" stroke-width="0.4" d="M249.351,385.81c-0.448-3.057-3.492-5.381-6.984-5.381
		c-6.312,0-8.686,5.166-8.686,10.547c0,5.123,2.373,10.287,8.686,10.287c4.297,0,6.715-2.84,7.252-6.887h6.805
		c-0.716,7.662-6.223,12.57-14.057,12.57c-9.895,0-15.714-7.105-15.714-15.971c0-9.127,5.819-16.23,15.714-16.23
		c7.028,0,12.938,3.961,13.789,11.064H249.351z"/>
	<polygon fill="#FFFFFF" points="241.682,374.548 232.749,374.548 234.624,377.421 	"/>
	<polyline fill="#D31245" points="201.994,374.548 201.994,381.382 214.735,381.382 214.735,406.923 222.559,406.923 
		222.559,381.405 235.369,381.405 235.369,374.548 	"/>
</g>
</svg>
